<svg width="58" height="58" viewBox="0 0 58 58" fill="none" xmlns="http://www.w3.org/2000/svg">
<circle cx="29" cy="29" r="29" fill="white" style="fill:white;fill-opacity:1;"/>
<path d="M40.0001 32.2593L32.0801 33.8393" stroke="#13558D" style="stroke:#13558D;stroke:color(display-p3 0.0745 0.3333 0.5529);stroke-opacity:1;" stroke-linecap="round" stroke-linejoin="round"/>
<path d="M32.9999 24.94L29.2999 26.46C29.0088 26.5832 28.696 26.6467 28.3799 26.6467C28.0638 26.6467 27.751 26.5832 27.4599 26.46C27.0355 26.2857 26.6706 25.9923 26.409 25.6154C26.1474 25.2384 26.0004 24.7939 25.9856 24.3353C25.9708 23.8767 26.0889 23.4237 26.3256 23.0306C26.5623 22.6376 26.9076 22.3214 27.3199 22.12L30.9999 20.36C31.4568 20.1219 31.9647 19.9984 32.4799 20C32.8679 20.0081 33.2523 20.0755 33.6199 20.2L40.3799 22.8" stroke="#13558D" style="stroke:#13558D;stroke:color(display-p3 0.0745 0.3333 0.5529);stroke-opacity:1;" stroke-linecap="round" stroke-linejoin="round"/>
<path d="M18 33.9394H20.8L25.46 37.4794C25.6918 37.7441 26.0172 37.9086 26.3677 37.9384C26.7183 37.9683 27.0668 37.8611 27.34 37.6394L34.34 32.0194C34.612 31.7897 34.7847 31.4637 34.8219 31.1096C34.8592 30.7555 34.7582 30.4007 34.54 30.1194L30.7 25.8794" stroke="#13558D" style="stroke:#13558D;stroke:color(display-p3 0.0745 0.3333 0.5529);stroke-opacity:1;" stroke-linecap="round" stroke-linejoin="round"/>
<path d="M27 22.3592L26.52 21.9592C26.0124 21.5961 25.4041 21.4003 24.78 21.3992C24.4103 21.3939 24.0433 21.4619 23.7 21.5992L18 23.9392" stroke="#13558D" style="stroke:#13558D;stroke:color(display-p3 0.0745 0.3333 0.5529);stroke-opacity:1;" stroke-linecap="round" stroke-linejoin="round"/>
<path d="M12 34.9399C12 35.2052 12.1054 35.4595 12.2929 35.647C12.4804 35.8346 12.7348 35.9399 13 35.9399H16C16.5304 35.9399 17.0391 35.7292 17.4142 35.3542C17.7893 34.9791 18 34.4704 18 33.9399V23.9399C18 23.4095 17.7893 22.9008 17.4142 22.5257C17.0391 22.1507 16.5304 21.9399 16 21.9399H13C12.7348 21.9399 12.4804 22.0453 12.2929 22.2328C12.1054 22.4204 12 22.6747 12 22.9399V34.9399Z" stroke="#13558D" style="stroke:#13558D;stroke:color(display-p3 0.0745 0.3333 0.5529);stroke-opacity:1;" stroke-linecap="round" stroke-linejoin="round"/>
<path d="M46 34.9399C46 35.2052 45.8946 35.4595 45.7071 35.647C45.5196 35.8346 45.2652 35.9399 45 35.9399H42C41.4696 35.9399 40.9609 35.7292 40.5858 35.3542C40.2107 34.9791 40 34.4704 40 33.9399V23.9399C40 23.4095 40.2107 22.9008 40.5858 22.5257C40.9609 22.1507 41.4696 21.9399 42 21.9399H45C45.2652 21.9399 45.5196 22.0453 45.7071 22.2328C45.8946 22.4204 46 22.6747 46 22.9399V34.9399Z" stroke="#13558D" style="stroke:#13558D;stroke:color(display-p3 0.0745 0.3333 0.5529);stroke-opacity:1;" stroke-linecap="round" stroke-linejoin="round"/>
</svg>
