<svg width="40" height="40" viewBox="0 0 40 40" fill="none" xmlns="http://www.w3.org/2000/svg">
<circle cx="20" cy="20" r="20" fill="white" style="fill:white;fill-opacity:1;"/>
<path d="M31.1826 29.6425C30.4465 29.6154 29.7248 29.431 29.066 29.1016C28.4073 28.7722 27.8267 28.3055 27.3634 27.7329C27.0282 28.321 26.5413 28.8084 25.9535 29.1443C25.3657 29.4802 24.6986 29.6522 24.0217 29.6425C23.2889 29.6 22.5723 29.4088 21.9158 29.0805C21.2592 28.7522 20.6763 28.2937 20.2026 27.7329C19.8578 28.3126 19.3688 28.7931 18.7832 29.1277C18.1976 29.4624 17.5353 29.6397 16.8609 29.6425C15.3852 29.537 14.0116 28.8502 13.0418 27.7329C12.639 28.3684 12.0705 28.882 11.3976 29.2185C10.7247 29.5549 9.97271 29.7015 9.22266 29.6425" stroke="#13558D" style="stroke:#13558D;stroke:color(display-p3 0.0745 0.3333 0.5529);stroke-opacity:1;" stroke-width="0.689655" stroke-linecap="round" stroke-linejoin="round"/>
<path d="M15.9062 22.0041L19.8333 17.2044C19.878 17.1497 19.9344 17.1056 19.9983 17.0753C20.0622 17.045 20.132 17.0293 20.2028 17.0293C20.2735 17.0293 20.3433 17.045 20.4072 17.0753C20.4711 17.1056 20.5275 17.1497 20.5723 17.2044L24.4993 22.0041" stroke="#13558D" style="stroke:#13558D;stroke:color(display-p3 0.0745 0.3333 0.5529);stroke-opacity:1;" stroke-width="0.689655" stroke-linecap="round" stroke-linejoin="round"/>
<path d="M15.4287 29.3633L11.9715 22.7009C11.9338 22.6281 11.9154 22.5469 11.9182 22.465C11.9211 22.3831 11.9449 22.3032 11.9875 22.2332C12.0301 22.1632 12.09 22.1053 12.1614 22.0652C12.2329 22.025 12.3134 22.0039 12.3954 22.0039H28.0156C28.0973 22.0038 28.1777 22.0247 28.249 22.0646C28.3203 22.1045 28.3802 22.162 28.423 22.2317C28.4657 22.3013 28.4898 22.3808 28.4931 22.4624C28.4963 22.5441 28.4785 22.6252 28.4414 22.698L24.9765 29.4827" stroke="#13558D" style="stroke:#13558D;stroke:color(display-p3 0.0745 0.3333 0.5529);stroke-opacity:1;" stroke-width="0.689655" stroke-linecap="round" stroke-linejoin="round"/>
<path d="M15.4282 29.3633L20.2021 22.0039L24.976 29.4827" stroke="#13558D" style="stroke:#13558D;stroke:color(display-p3 0.0745 0.3333 0.5529);stroke-opacity:1;" stroke-width="0.689655" stroke-linecap="round" stroke-linejoin="round"/>
<path d="M29.2735 12.9336H28.7961C28.7914 12.378 28.593 11.8414 28.2351 11.4164C27.8771 10.9913 27.3821 10.7045 26.8354 10.6053C26.2887 10.506 25.7245 10.6007 25.24 10.8729C24.7556 11.1451 24.3813 11.5777 24.1816 12.0963C23.9777 12.0207 23.7623 11.981 23.5448 11.9789C23.0384 11.9789 22.5527 12.18 22.1946 12.5382C21.8364 12.8963 21.6353 13.382 21.6353 13.8884C21.6353 14.3949 21.8364 14.8806 22.1946 15.2387C22.5527 15.5968 23.0384 15.798 23.5448 15.798H29.2735C29.6533 15.798 30.0176 15.6471 30.2862 15.3785C30.5548 15.1099 30.7056 14.7456 30.7056 14.3658C30.7056 13.986 30.5548 13.6217 30.2862 13.3531C30.0176 13.0845 29.6533 12.9336 29.2735 12.9336Z" stroke="#13558D" style="stroke:#13558D;stroke:color(display-p3 0.0745 0.3333 0.5529);stroke-opacity:1;" stroke-width="0.689655" stroke-linecap="round" stroke-linejoin="round"/>
</svg>
