<svg width="40" height="40" viewBox="0 0 40 40" fill="none" xmlns="http://www.w3.org/2000/svg">
<circle cx="20" cy="20" r="20" fill="white" style="fill:white;fill-opacity:1;"/>
<path d="M15.1194 20.9563C14.5807 20.4176 14.5807 19.5443 15.1194 19.0056L22.721 11.404C22.9797 11.1453 23.3306 11 23.6964 11H28.0324C28.7942 11 29.4117 11.6175 29.4117 12.3793V16.7153C29.4117 17.0812 29.2664 17.432 29.0077 17.6907L21.4061 25.2923C20.8674 25.831 19.9941 25.831 19.4554 25.2923L15.1194 20.9563Z" stroke="#13558D" style="stroke:#13558D;stroke:color(display-p3 0.0745 0.3333 0.5529);stroke-opacity:1;"/>
<path d="M14.4287 14.5923C14.2458 14.5923 14.0704 14.6649 13.941 14.7943L11.9364 16.7989C11.6671 17.0682 11.6671 17.5049 11.9364 17.7742L13.6554 19.4932C13.9247 19.7625 14.3614 19.7625 14.6307 19.4932L18.3543 15.7696C18.7888 15.3351 18.4811 14.5923 17.8666 14.5923H14.4287Z" stroke="#13558D" style="stroke:#13558D;stroke:color(display-p3 0.0745 0.3333 0.5529);stroke-opacity:1;"/>
<path d="M25.8188 25.9818C25.8188 26.1647 25.7461 26.3402 25.6168 26.4695L23.6121 28.4741C23.3428 28.7435 22.9061 28.7435 22.6368 28.4741L20.9178 26.7552C20.6485 26.4858 20.6485 26.0492 20.9178 25.7798L24.6414 22.0562C25.0759 21.6218 25.8188 21.9295 25.8188 22.5439V25.9818Z" stroke="#13558D" style="stroke:#13558D;stroke:color(display-p3 0.0745 0.3333 0.5529);stroke-opacity:1;"/>
<path d="M15.4902 24.9204L11.4487 28.9619" stroke="#13558D" style="stroke:#13558D;stroke:color(display-p3 0.0745 0.3333 0.5529);stroke-opacity:1;" stroke-linecap="round"/>
<path d="M18.1854 27.6147L16.3892 29.4109" stroke="#13558D" style="stroke:#13558D;stroke:color(display-p3 0.0745 0.3333 0.5529);stroke-opacity:1;" stroke-linecap="round"/>
<path d="M12.7962 22.2261L11 24.0223" stroke="#13558D" style="stroke:#13558D;stroke:color(display-p3 0.0745 0.3333 0.5529);stroke-opacity:1;" stroke-linecap="round"/>
<path d="M24.4849 15.9258L22.6606 17.75" stroke="#13558D" style="stroke:#13558D;stroke:color(display-p3 0.0745 0.3333 0.5529);stroke-opacity:1;" stroke-linecap="round"/>
</svg>
