<svg width="40" height="40" viewBox="0 0 40 40" fill="none" xmlns="http://www.w3.org/2000/svg">
<circle cx="20" cy="20" r="20" fill="white" style="fill:white;fill-opacity:1;"/>
<path d="M14.393 24.3671C12.1705 24.3671 8.34735 23.1131 8.27599 21.8184C8.22501 20.7989 11.4466 18.2501 14.9028 18.2501H25.0978L28.1563 15.7014C28.3533 15.5023 28.5944 15.3525 28.8601 15.2639C29.1257 15.1754 29.4085 15.1506 29.6855 15.1916H31.7245L27.1368 23.3476C26.9758 23.6224 26.7545 23.8569 26.4896 24.0335C26.2247 24.2102 25.923 24.3242 25.6075 24.3671H21.5295" stroke="#13558D" style="stroke:#13558D;stroke:color(display-p3 0.0745 0.3333 0.5529);stroke-opacity:1;" stroke-linecap="round" stroke-linejoin="round"/>
<path d="M19.4901 25.3866H14.9023C14.7671 25.3866 14.6375 25.3329 14.5419 25.2373C14.4463 25.1417 14.3926 25.0121 14.3926 24.8769V22.8379C14.3926 22.7027 14.4463 22.573 14.5419 22.4774C14.6375 22.3818 14.7671 22.3281 14.9023 22.3281H19.4901C20.6625 22.3281 21.0193 22.8379 22.0388 23.8574C20.5504 25.3968 20.2037 25.3866 19.4901 25.3866Z" stroke="#13558D" style="stroke:#13558D;stroke:color(display-p3 0.0745 0.3333 0.5529);stroke-opacity:1;" stroke-linecap="round" stroke-linejoin="round"/>
<path d="M26.627 21.3086H29.6855" stroke="#13558D" style="stroke:#13558D;stroke:color(display-p3 0.0745 0.3333 0.5529);stroke-opacity:1;" stroke-linecap="round" stroke-linejoin="round"/>
<path d="M17.4509 20.2891H18.9802" stroke="#13558D" style="stroke:#13558D;stroke:color(display-p3 0.0745 0.3333 0.5529);stroke-opacity:1;" stroke-linecap="round" stroke-linejoin="round"/>
<path d="M21.5293 20.2891H23.0586" stroke="#13558D" style="stroke:#13558D;stroke:color(display-p3 0.0745 0.3333 0.5529);stroke-opacity:1;" stroke-linecap="round" stroke-linejoin="round"/>
<path d="M9.36719 20.2891H13.3738" stroke="#13558D" style="stroke:#13558D;stroke:color(display-p3 0.0745 0.3333 0.5529);stroke-opacity:1;" stroke-linecap="round" stroke-linejoin="round"/>
</svg>
