<svg width="40" height="40" viewBox="0 0 40 40" fill="none" xmlns="http://www.w3.org/2000/svg">
<circle cx="20" cy="20" r="20" fill="white" style="fill:white;fill-opacity:1;"/>
<path d="M25.4237 26.5319C24.8448 25.5293 24.0121 24.6968 23.0095 24.1179C22.0069 23.5391 20.8696 23.2344 19.7118 23.2344C18.5541 23.2344 17.4168 23.5391 16.4142 24.1179C15.4115 24.6968 14.5789 25.5293 14 26.5319" stroke="#13558D" style="stroke:#13558D;stroke:color(display-p3 0.0745 0.3333 0.5529);stroke-opacity:1;" stroke-linecap="round" stroke-linejoin="round"/>
<path d="M15.7539 17.9574C15.7539 19.007 16.1708 20.0135 16.913 20.7557C17.6552 21.4978 18.6617 21.9148 19.7113 21.9148C20.7609 21.9148 21.7674 21.4978 22.5096 20.7557C23.2517 20.0135 23.6687 19.007 23.6687 17.9574C23.6687 16.9078 23.2517 15.9012 22.5096 15.1591C21.7674 14.4169 20.7609 14 19.7113 14C18.6617 14 17.6552 14.4169 16.913 15.1591C16.1708 15.9012 15.7539 16.9078 15.7539 17.9574Z" stroke="#13558D" style="stroke:#13558D;stroke:color(display-p3 0.0745 0.3333 0.5529);stroke-opacity:1;" stroke-linecap="round" stroke-linejoin="round"/>
</svg>
