<svg width="57" height="41" viewBox="0 0 57 41" fill="none" xmlns="http://www.w3.org/2000/svg">
<path d="M21.8785 28.4005L31.4267 37.9153C30.007 38.7978 28.4702 39.512 26.8461 40.0279C24.8678 40.6606 22.7587 41 20.5706 41C9.20757 41.0027 0 31.8246 0 20.5014C0 9.17809 9.20757 0 20.5733 0C22.7124 0 24.7752 0.325849 26.7153 0.928671C28.432 1.46361 30.0506 2.21578 31.5385 3.15259L22.0311 12.6239C21.5597 12.5371 21.072 12.4909 20.5733 12.4909C16.1344 12.4909 12.5347 16.078 12.5347 20.5014C12.5347 20.9983 12.581 21.4843 12.6682 21.9541C13.3549 25.6851 16.633 28.5118 20.5733 28.5118C21.0202 28.5118 21.4562 28.4765 21.8813 28.4032L21.8785 28.4005Z" fill="#13558D" style="fill:#13558D;fill:color(display-p3 0.0745 0.3333 0.5529);fill-opacity:1;"/>
<path d="M56.7667 39.9487H44.0617L36.8186 32.8418L30.4289 26.5696C30.4289 26.5696 27.6705 23.782 27.6787 23.7522L24.1797 20.319L27.5493 17.0127L30.4702 14.1467L30.5005 14.117L43.8194 1.05127H56.4418L40.648 16.5454L36.7856 20.3379L40.7086 24.1871L56.7694 39.9487H56.7667Z" fill="#13558D" style="fill:#13558D;fill:color(display-p3 0.0745 0.3333 0.5529);fill-opacity:1;"/>
</svg>
